<svg width="162" height="167" viewBox="0 0 162 167" fill="none" xmlns="http://www.w3.org/2000/svg">
<path d="M141.009 22.4C127.235 7.74402 107.909 0 85.116 0C68.039 0 52.929 4.58901 40.581 13.364C32.2751 17.5279 24.8946 23.3245 18.881 30.407C6.705 44.66 0 63.816 0 84.345C0 133.336 30.813 166.252 76.674 166.252C94.182 166.252 109.527 161.636 121.92 152.809C130.339 148.605 137.79 142.692 143.796 135.447C155.518 121.376 161.974 102.361 161.974 81.904C161.976 57.57 154.726 36.994 141.009 22.4ZM85.677 148.817C45.863 148.817 21.005 120.591 21.005 78.91C21.005 57.51 29.541 36.425 46.638 23.81C55.8473 19.465 65.9282 17.2834 76.11 17.432C115.362 17.432 140.97 43.785 140.97 87.339C140.97 108.352 133.037 129.654 115.811 142.41C107.428 146.459 97.427 148.817 85.677 148.817Z" fill="black"/>
<path d="M85.6772 42.462C77.8212 42.462 71.3672 44.985 66.4772 49.544C53.6402 54.049 46.5771 67.511 46.5771 86.21C46.5771 107.147 57.9772 123.594 75.9212 123.594C83.9672 123.594 90.2861 121.109 94.9691 116.622C108.069 112.193 114.269 98.499 114.269 79.47C114.276 54.426 102.312 42.462 85.6772 42.462ZM84.9292 106.162C73.0112 106.162 67.5832 93.004 67.5832 80.778C67.5832 72.033 69.4831 64.734 72.9391 60.225V60.22C74.1702 59.9995 75.4186 59.8903 76.6692 59.894C87.6832 59.894 93.2692 68.308 93.2692 84.901C93.2692 95.707 91.2042 102.137 88.4302 105.964C87.2696 106.116 86.0994 106.182 84.9292 106.162V106.162Z" fill="black"/>
<path d="M149.974 81.9819C149.974 115.064 130.347 148.895 85.6739 148.895C45.8599 148.895 21.002 120.669 21.002 78.988C21.002 45.158 42.311 12.075 85.113 12.075C124.366 12.075 149.974 38.4289 149.974 81.9819ZM85.6739 42.54C66.4219 42.54 55.5799 57.68 55.5799 80.856C55.5799 101.794 66.9799 118.24 84.9259 118.24C104.926 118.24 114.272 102.914 114.272 79.548C114.273 54.504 102.31 42.54 85.6749 42.54H85.6739Z" fill="#FCD015"/>
<path d="M85.2658 148.895C76.0995 149 67.0022 147.298 58.4938 143.886C50.7705 140.725 43.8362 135.905 38.1818 129.768C32.4287 123.434 28.0262 115.994 25.2428 107.903C22.1302 98.811 20.5589 89.2629 20.5938 79.653H55.1818C55.1758 80.032 55.1718 80.437 55.1718 80.853C55.1403 85.8186 55.835 90.7623 57.2338 95.527C58.4725 99.8018 60.4645 103.821 63.1158 107.396C65.5662 110.701 68.7255 113.415 72.3618 115.339C76.1183 117.277 80.2899 118.272 84.5168 118.239C89.0052 118.325 93.4538 117.383 97.5228 115.487C101.176 113.693 104.32 111.011 106.668 107.687C109.215 104.003 111.049 99.8746 112.074 95.515C113.316 90.3205 113.917 84.9935 113.864 79.653H149.541C149.558 80.44 149.566 81.224 149.566 81.982C149.567 86.1238 149.256 90.2599 148.635 94.355C148.017 98.4375 147.069 102.463 145.801 106.393C143.329 114.221 139.38 121.503 134.168 127.844C128.742 134.38 121.9 139.594 114.159 143.092C105.054 147.071 95.2011 149.05 85.2658 148.895V148.895Z" fill="#FBB500"/>
<path d="M85.2682 151.895C65.0132 151.895 47.9022 144.875 35.7852 131.595C23.8852 118.551 17.5962 100.361 17.5962 78.989C17.5962 45.317 38.5962 9.07593 84.7072 9.07593C104.953 9.07593 122.012 15.842 134.042 28.642C146.161 41.542 152.566 59.9819 152.566 81.9839C152.566 100.34 146.851 117.309 136.474 129.766C124.413 144.242 106.706 151.895 85.2682 151.895ZM84.7072 15.075C42.7192 15.075 23.5962 48.206 23.5962 78.988C23.5962 119.632 47.8032 145.895 85.2682 145.895C127.612 145.895 146.568 113.795 146.568 81.983C146.566 40.713 122.863 15.075 84.7072 15.075V15.075ZM84.5202 121.24C65.4752 121.24 52.1742 104.633 52.1742 80.856C52.1742 55.371 64.8542 39.54 85.2682 39.54C105.054 39.54 116.868 54.496 116.868 79.548C116.866 106.044 105.076 121.24 84.5202 121.24ZM85.2682 45.54C68.3022 45.54 58.1742 58.74 58.1742 80.856C58.1742 101.101 69.0082 115.24 84.5202 115.24C96.5392 115.24 110.866 109.048 110.866 79.548C110.866 57.935 101.536 45.54 85.2682 45.54Z" fill="#FCD015"/>
</svg>
