<svg width="146" height="170" viewBox="0 0 146 170" fill="none" xmlns="http://www.w3.org/2000/svg">
<path d="M45.632 20.004C45.7806 19.9984 45.9293 20.0149 46.073 20.053C47.029 20.627 62.7 48.7211 69.389 64.3931H70.537C78.756 49.1031 94.4271 20.244 95.7651 20.053C95.7947 20.0514 95.8244 20.0514 95.854 20.053C98.554 20.053 126.154 27.538 126.343 29.803C126.535 32.288 96.529 85.228 95.191 87.139C102.454 99.179 129.019 146.195 128.829 147.533C128.285 148.985 104.123 157.161 96.292 157.161C95.9241 157.164 95.5565 157.14 95.1921 157.089C94.0461 156.706 78.374 128.038 70.347 112.367H69.2001C61.3641 128.038 45.883 156.706 44.928 156.706C44.3791 156.794 43.8238 156.834 43.268 156.826C34.874 156.826 12.411 150.291 12.056 148.871C11.674 147.533 37.6661 99.944 45.5021 87.139C44.3541 85.419 14.923 32.4791 15.114 29.9941C15.114 27.8011 41.358 20.0071 45.634 20.0071L45.632 20.004ZM45.634 8.00708C40.95 8.00708 30.811 10.9641 25.183 12.7271C22.296 13.6271 18.135 15.004 14.717 16.41C11.317 17.81 3.43504 21.0481 3.12404 29.4741C2.93604 33.1251 4.15704 35.9151 8.95204 45.2241C11.479 50.1301 14.952 56.643 19.262 64.582C22.928 71.329 28.085 80.7 31.63 87.027C26.938 95.137 20.45 106.833 15.155 116.573C11.196 123.854 7.80802 130.209 5.35502 134.954C0.698023 143.967 -0.898974 147.054 0.476026 152.029C2.25403 158.6 8.26903 160.737 11.882 162.021C14.489 162.947 17.911 163.993 21.517 164.966C26.857 166.408 36.783 168.826 43.265 168.826C44.3051 168.832 45.3443 168.765 46.375 168.626C52.089 167.967 54.975 163.526 55.975 161.992C56.606 161.022 57.394 159.724 58.384 158.024C60.078 155.118 62.371 151.013 65.016 146.154C66.597 143.254 68.236 140.203 69.861 137.149C71.539 140.249 73.224 143.34 74.837 146.263C77.537 151.157 79.878 155.293 81.604 158.228C84.789 163.644 86.71 166.913 91.384 168.473L92.366 168.801L93.388 168.956C94.3481 169.098 95.3175 169.167 96.288 169.163C102.275 169.163 111.88 166.541 118.883 164.342C122.627 163.166 126.223 161.915 129.011 160.817C133.011 159.241 137.988 157.281 140.062 151.747L140.52 150.523L140.705 149.23C141.33 144.848 140.039 142.452 135.236 133.536C132.783 128.984 129.336 122.742 125.269 115.484C119.449 105.101 113.351 94.406 109.105 87.116C113.127 80.101 118.955 69.6951 121.832 64.5081C126.226 56.5841 129.769 50.0631 132.365 45.1251C137.447 35.4501 138.605 32.7911 138.304 28.8831V28.847V28.8101C137.614 20.5101 129.895 17.549 126.185 16.123C122.738 14.799 118.449 13.463 115.457 12.576C109.766 10.887 99.657 8.05505 95.857 8.05505C95.462 8.05505 95.0651 8.07303 94.6791 8.10803L94.373 8.13507L94.073 8.17908C87.954 9.05408 85.258 13.54 82.136 18.735C80.427 21.579 78.114 25.6081 75.263 30.7131C73.748 33.4241 72.156 36.3031 70.563 39.2131C68.894 35.9941 67.356 33.105 66.163 30.881C63.796 26.481 61.463 22.2741 59.587 19.0281C56.64 13.9221 55.295 11.5911 52.267 9.77307L51.133 9.09204L49.879 8.67407C48.5139 8.22413 47.0844 8.00015 45.647 8.01105L45.634 8.00708Z" fill="black"/>
<path d="M50.6369 11.997C50.7852 11.9912 50.9335 12.0078 51.0769 12.046C52.0339 12.62 67.7049 40.714 74.3939 56.386H75.5369C83.7539 41.096 99.4259 12.238 100.764 12.046C100.794 12.0444 100.824 12.0444 100.854 12.046C103.554 12.046 131.154 19.531 131.344 21.796C131.536 24.282 101.529 77.221 100.191 79.132C107.454 91.172 134.02 138.188 133.829 139.526C133.284 140.978 109.122 149.154 101.292 149.154C100.924 149.157 100.556 149.133 100.192 149.082C99.046 148.7 83.3739 120.032 75.3469 104.36H74.2C66.364 120.032 50.883 148.7 49.927 148.7C49.378 148.787 48.8226 148.826 48.2669 148.819C39.8739 148.819 17.411 142.285 17.056 140.864C16.673 139.526 42.666 91.937 50.502 79.132C49.354 77.413 19.9209 24.472 20.1129 21.987C20.1129 19.794 46.3569 12 50.6339 12L50.6369 11.997ZM50.6339 0C45.9499 0 35.8099 2.95697 30.1829 4.71997C27.2949 5.61997 23.1349 6.99702 19.7169 8.40302C16.3169 9.80302 8.43494 13.041 8.12294 21.467C7.93494 25.119 9.15594 27.909 13.9509 37.217C16.4779 42.123 19.9509 48.636 24.2609 56.576C27.9269 63.322 33.0849 72.693 36.6289 79.02C31.9369 87.13 25.4489 98.827 20.1539 108.566C16.1949 115.847 12.8079 122.203 10.3539 126.947C5.69792 135.96 4.09993 139.047 5.47493 144.022C7.25193 150.593 13.2689 152.73 16.8809 154.014C19.4889 154.94 22.9109 155.986 26.5159 156.959C31.8559 158.401 41.7819 160.819 48.2639 160.819C49.3043 160.825 50.3439 160.758 51.375 160.619C57.088 159.959 59.9749 155.519 60.9749 153.984C61.6059 153.014 62.3929 151.716 63.3829 150.016C65.0769 147.11 67.3699 143.005 70.0159 138.146C71.5959 135.246 73.2359 132.195 74.8609 129.141C76.5379 132.241 78.2229 135.332 79.8369 138.255C82.5369 143.149 84.878 147.286 86.604 150.22C89.788 155.636 91.7039 158.905 96.3839 160.465L97.3659 160.793L98.3869 160.948C99.347 161.09 100.316 161.159 101.287 161.155C107.273 161.155 116.878 158.534 123.882 156.334C127.624 155.159 131.222 153.907 134.009 152.809C138.009 151.233 142.986 149.273 145.06 143.739L145.519 142.515L145.703 141.222C146.328 136.84 145.037 134.444 140.234 125.528C137.783 120.976 134.334 114.734 130.267 107.476C124.449 97.093 118.349 86.398 114.105 79.108C118.126 72.093 123.955 61.687 126.83 56.5C131.224 48.577 134.769 42.055 137.363 37.118C142.447 27.442 143.605 24.784 143.302 20.875V20.839V20.802C142.613 12.502 134.894 9.54097 131.185 8.11597C127.736 6.79097 123.447 5.45599 120.457 4.56799C114.765 2.87899 104.651 0.0469971 100.857 0.0469971C100.457 0.0469971 100.064 0.0649756 99.679 0.0999756L99.3729 0.127014L99.073 0.171021C92.954 1.04602 90.2589 5.53299 87.1359 10.727C85.4279 13.571 83.1149 17.6 80.2619 22.706C78.7489 25.416 77.162 28.295 75.562 31.206C73.894 27.986 72.3559 25.097 71.1619 22.874C68.7949 18.474 66.4619 14.266 64.5859 11.02C61.6389 5.92002 60.2929 3.58301 57.2659 1.76501L56.1319 1.08398L54.8779 0.666992C53.5129 0.21634 52.0834 -0.00795678 50.6459 0.00299072L50.6339 0Z" fill="black"/>
<path d="M71.188 104.356C63.352 120.028 47.872 148.696 46.917 148.696C40.417 149.842 14.426 142.389 14.044 140.86C13.662 139.522 39.653 91.933 47.489 79.128C46.342 77.409 16.911 24.468 17.101 21.983C17.101 19.691 45.769 11.283 48.063 12.045C49.018 12.619 64.69 40.713 71.38 56.385H72.526C80.745 41.095 96.415 12.237 97.753 12.045C99.853 11.855 128.141 19.498 128.333 21.792C128.524 24.278 98.518 77.217 97.18 79.128C104.442 91.168 131.008 138.184 130.817 139.522C130.245 141.051 103.487 150.034 97.18 149.078C96.034 148.696 80.3619 120.028 72.3349 104.356H71.188Z" fill="#FCD015"/>
<path d="M97.6771 149.078C96.5311 148.696 80.8591 120.028 72.8371 104.356H71.6851C63.8491 120.028 48.3691 148.696 47.4141 148.696C41.6311 149.716 20.4051 143.924 15.5371 141.56V138.37C20.3201 128.27 40.9191 90.715 47.8831 79.297H97.7831C105.189 91.603 131.508 138.19 131.319 139.521C130.775 140.973 106.619 149.147 98.7831 149.148C98.4132 149.152 98.0435 149.129 97.6771 149.078Z" fill="#FBB500"/>
<path d="M101.206 152.141C100.712 152.144 100.219 152.11 99.7309 152.041L99.2309 151.92C97.8719 151.466 97.3089 151.278 87.7129 133.897C83.3999 126.086 78.5739 117.091 74.7859 109.821C71.1269 116.991 66.3989 125.951 62.1079 133.833C52.7579 151.005 52.0949 151.665 50.1569 151.69C45.5789 152.334 35.8799 150.096 30.4339 148.681C14.9009 144.646 14.4939 143.02 14.1339 141.581C13.7339 140.202 13.5469 139.529 28.0499 112.854C35.4889 99.171 43.0199 85.762 47.0009 79.095C44.5379 74.785 38.1079 63.217 32.1589 52.268C17.1949 24.73 17.0189 23.019 17.1059 21.812C17.1565 21.2079 17.348 20.624 17.6651 20.1074C17.9823 19.5907 18.4161 19.1556 18.9319 18.837C22.6459 16.159 48.0839 7.88403 52.0119 9.19203L52.3259 9.292L52.6099 9.46302C53.2569 9.85202 54.2349 10.44 63.2099 27.12C65.6149 31.587 71.0559 41.853 75.1509 50.737C97.3789 9.48501 98.3259 9.35004 100.326 9.06404L100.48 9.04603C103.606 8.76903 129.112 15.806 132.916 19C133.309 19.3053 133.635 19.6872 133.876 20.1224C134.116 20.5576 134.266 21.0372 134.316 21.532C134.416 22.783 134.516 24.057 118.948 52.119C112.802 63.202 106.233 74.776 103.675 79.124C107.625 85.778 115.351 99.277 122.405 111.86C137.057 138.003 136.97 138.608 136.781 139.936L136.735 140.258L136.621 140.558C136.187 141.718 135.593 143.306 120.021 148.085C114.886 149.679 106.081 152.141 101.206 152.141ZM72.3369 101.356H77.1719L78.0079 102.988C85.9769 118.545 98.5079 141.347 101.688 146.161C107.446 146.011 124.169 140.747 129.995 138.261C125.286 128.951 104.902 92.761 97.6139 80.676L96.6059 79.005L97.7259 77.405C99.4149 74.877 123.385 32.482 127.756 22.891C122.738 20.62 107.025 16.165 101.991 15.215C99.6389 18.705 92.4309 31.276 78.1719 57.803L77.3219 59.383H72.4009L71.6229 57.561C65.5589 43.352 52.8739 20.44 49.5509 15.096C44.6069 15.849 28.6129 20.607 23.6419 23.015C27.8269 32.396 51.4699 75.083 52.9979 77.479L54.0069 79.059L53.0509 80.692C45.9509 92.302 25.3509 129.992 20.8119 139.502C26.5379 141.702 42.6979 145.914 48.3929 145.825C51.5309 141.047 64.1779 117.671 71.5079 103.012L72.3369 101.356Z" fill="#FCD015"/>
<path d="M4.86011 23.603L9.98712 15.3979L14.3171 23.0339C14.3171 23.0339 11.7081 28.805 11.4701 28.963C11.2321 29.121 4.86011 23.603 4.86011 23.603Z" fill="black"/>
<path d="M144.374 145.263L138.518 154.634L130.991 149.155L138.56 139.386L144.374 145.263Z" fill="black"/>
</svg>
